<svg width="28" height="26" viewBox="0 0 28 26" fill="none" xmlns="http://www.w3.org/2000/svg">
<path d="M10.6937 24.0741C10.6937 24.455 10.5797 24.8273 10.3661 25.1441C10.1524 25.4608 9.84876 25.7076 9.49349 25.8534C9.13821 25.9992 8.74727 26.0373 8.37011 25.963C7.99295 25.8887 7.64651 25.7053 7.37459 25.4359C7.10267 25.1666 6.91749 24.8234 6.84247 24.4498C6.76745 24.0762 6.80595 23.689 6.95311 23.3371C7.10027 22.9851 7.34948 22.6843 7.66922 22.4727C7.98896 22.2611 8.36488 22.1481 8.74943 22.1481C9.26509 22.1482 9.75963 22.3511 10.1243 22.7122C10.4889 23.0734 10.6937 23.5633 10.6937 24.0741ZM23.3318 22.1481C22.9473 22.1481 22.5713 22.2611 22.2516 22.4727C21.9319 22.6843 21.6827 22.9851 21.5355 23.3371C21.3883 23.689 21.3498 24.0762 21.4248 24.4498C21.4999 24.8234 21.6851 25.1666 21.957 25.4359C22.2289 25.7053 22.5753 25.8887 22.9525 25.963C23.3297 26.0373 23.7206 25.9992 24.0759 25.8534C24.4311 25.7076 24.7348 25.4608 24.9484 25.1441C25.1621 24.8273 25.2761 24.455 25.2761 24.0741C25.2761 23.5633 25.0713 23.0734 24.7066 22.7122C24.342 22.3511 23.8475 22.1482 23.3318 22.1481ZM27.9687 7.0851L25.8488 18.6406C25.7676 19.0845 25.5316 19.486 25.1819 19.7751C24.8323 20.0641 24.3913 20.2224 23.9358 20.2222H8.15619C7.70099 20.2224 7.26018 20.0642 6.91062 19.7754C6.56107 19.4866 6.32495 19.0854 6.24344 18.6418L3.92032 6.02246C3.90795 5.97561 3.89914 5.92791 3.89398 5.87975L3.16616 1.92593H0.972159C0.714326 1.92593 0.467054 1.82447 0.284739 1.64388C0.102424 1.46329 0 1.21836 0 0.962963C0 0.707569 0.102424 0.462636 0.284739 0.282045C0.467054 0.101455 0.714326 9.08186e-08 0.972159 9.08186e-08H3.16604C3.62126 -0.000138344 4.06208 0.15799 4.41165 0.446813C4.76123 0.735637 4.99737 1.13683 5.07891 1.58045L5.67441 4.81481H26.0557C26.3405 4.81481 26.6218 4.87677 26.8797 4.99632C27.1376 5.11586 27.3659 5.29008 27.5484 5.50664C27.7309 5.7232 27.8631 5.97682 27.9357 6.24958C28.0083 6.52234 28.0196 6.80756 27.9687 7.0851ZM26.0557 6.74074H6.02888L8.15619 18.2963H23.9358L26.0557 6.74074Z" fill="white"/>
</svg>
