<svg width="25" height="25" viewBox="0 0 25 25" fill="none" xmlns="http://www.w3.org/2000/svg">
<path fill-rule="evenodd" clip-rule="evenodd" d="M16.3158 16.3149C16.4609 16.1697 16.6332 16.0544 16.8229 15.9758C17.0126 15.8972 17.2159 15.8567 17.4212 15.8567C17.6265 15.8567 17.8298 15.8972 18.0195 15.9758C18.2092 16.0544 18.3815 16.1697 18.5266 16.3149L24.5419 22.3302C24.8351 22.6232 24.9999 23.0206 25 23.4351C25.0002 23.8495 24.8357 24.2471 24.5427 24.5403C24.2497 24.8334 23.8523 24.9982 23.4378 24.9984C23.0234 24.9985 22.6258 24.834 22.3327 24.541L16.3174 18.5257C16.1721 18.3806 16.0569 18.2083 15.9782 18.0186C15.8996 17.829 15.8591 17.6257 15.8591 17.4203C15.8591 17.215 15.8996 17.0117 15.9782 16.822C16.0569 16.6323 16.1721 16.46 16.3174 16.3149H16.3158Z" fill="white"/>
<path fill-rule="evenodd" clip-rule="evenodd" d="M10.1557 18.749C11.2842 18.749 12.4016 18.5267 13.4442 18.0949C14.4868 17.663 15.4341 17.03 16.2321 16.2321C17.03 15.4341 17.663 14.4868 18.0949 13.4442C18.5267 12.4016 18.749 11.2842 18.749 10.1557C18.749 9.02721 18.5267 7.90978 18.0949 6.86719C17.663 5.82461 17.03 4.87729 16.2321 4.07933C15.4341 3.28137 14.4868 2.64839 13.4442 2.21654C12.4016 1.78469 11.2842 1.56242 10.1557 1.56242C7.87662 1.56242 5.69088 2.46778 4.07933 4.07933C2.46778 5.69088 1.56242 7.87662 1.56242 10.1557C1.56242 12.4348 2.46778 14.6205 4.07933 16.2321C5.69088 17.8436 7.87662 18.749 10.1557 18.749ZM20.3114 10.1557C20.3114 12.8492 19.2414 15.4323 17.3369 17.3369C15.4323 19.2414 12.8492 20.3114 10.1557 20.3114C7.46224 20.3114 4.8791 19.2414 2.97454 17.3369C1.06997 15.4323 0 12.8492 0 10.1557C0 7.46224 1.06997 4.8791 2.97454 2.97454C4.8791 1.06997 7.46224 0 10.1557 0C12.8492 0 15.4323 1.06997 17.3369 2.97454C19.2414 4.8791 20.3114 7.46224 20.3114 10.1557Z" fill="white"/>
</svg>
